<svg width="131" height="155" viewBox="0 0 131 155" fill="none" xmlns="http://www.w3.org/2000/svg">
<path d="M59.928 52.088L56.28 47.288L90.072 0.631996H97.176L59.928 52.088ZM67.992 62.456L64.344 57.656L105.816 0.631996H112.92L67.992 62.456ZM76.056 72.824L72.408 68.024L121.56 0.631996H128.664L76.056 72.824ZM25.944 155V0.631996H31.704V155H25.944ZM0.6 155V0.631996H6.36V155H0.6ZM13.272 155V0.631996H19.032V155H13.272ZM123.288 155L48.408 58.04L52.056 53.24L130.584 155H123.288ZM107.352 155L40.728 68.792L44.376 63.8L114.648 155H107.352ZM91.224 155L33.048 79.544L36.504 74.744L98.52 155H91.224Z" fill="#F2F8FB"/>
</svg>
